# xmcd
#
# Track frame offsets:
#	150
#	19840
#	31902
#	48180
#	68281
#	87585
#	106961
#	129681
#	155128
#	168046
#	181369
#	201152
#	218346
#	246684
#	269812
#	285245
#	304952
#
# Disc length: 4384 seconds
#
# Revision: 1
# Processed by: cddbd v1.4PL0 Copyright (c) Steve Scherf et al.
# Submitted via: CDmax 1.8
#
DISCID=f0111e11
DTITLE=Sweet Blue Midnights - Sparkle
DYEAR=1999
DGENRE=Blues
TTITLE0=Calling
TTITLE1=Full Moon Full of Love
TTITLE2=Just Couldn't Stand It No More
TTITLE3=Don't You Feel My Leg
TTITLE4=Trouble In Mind
TTITLE5=Dat Dere
TTITLE6=The Blues Walk/Don't Want Nobody
TTITLE7=Busy Being Blue
TTITLE8=Ruler Of My Heart
TTITLE9=Fat Daddy
TTITLE10=How Long Has This Been Going On?
TTITLE11=Midnight At The Oasis
TTITLE12=Exactly Like You
TTITLE13=North Dakota
TTITLE14=I Never Knew
TTITLE15=Someone To Watch Over Me
TTITLE16=When It All Comes Down
EXTD=
EXTT0=
EXTT1=
EXTT2=
EXTT3=
EXTT4=
EXTT5=
EXTT6=
EXTT7=
EXTT8=
EXTT9=
EXTT10=
EXTT11=
EXTT12=
EXTT13=
EXTT14=
EXTT15=
EXTT16=
PLAYORDER=
